<svg width="542" height="110" viewBox="0 0 542 110" fill="none" xmlns="http://www.w3.org/2000/svg">
<path d="M0.324219 110H-0.675781V111H0.324219V110ZM0.324219 0.136719V-0.863281H-0.675781V0.136719H0.324219ZM78.2539 43.5693L79.1196 44.07L79.1221 44.0655L78.2539 43.5693ZM68.7324 53.0908L68.2351 52.2232L66.2853 53.3408L68.4209 54.041L68.7324 53.0908ZM82.8682 95.3516L83.7016 95.9042L83.7042 95.9002L82.8682 95.3516ZM69.7578 106.191L70.1669 107.104L70.1734 107.101L69.7578 106.191ZM29.3281 44.4482H28.3281V45.4482H29.3281V44.4482ZM49.7627 41.958L50.3571 42.7622L50.36 42.7601L49.7627 41.958ZM29.3281 25.4053V24.4053H28.3281V25.4053H29.3281ZM29.3281 84.7314H28.3281V85.7314H29.3281V84.7314ZM50.6416 83.6328L50.9399 84.5873L50.9489 84.5845L50.9578 84.5815L50.6416 83.6328ZM55.9883 80.3369L56.7457 80.9899L56.7512 80.9835L56.7565 80.9771L55.9883 80.3369ZM56.208 69.9365L55.4113 70.5409L55.4164 70.5477L55.4217 70.5543L56.208 69.9365ZM51.4473 66.7871L51.1109 67.7289L51.1242 67.7336L51.1377 67.738L51.4473 66.7871ZM29.3281 65.6885V64.6885H28.3281V65.6885H29.3281ZM1.32422 110V0.136719H-0.675781V110H1.32422ZM0.324219 1.13672H42.1455V-0.863281H0.324219V1.13672ZM42.1455 1.13672C54.6742 1.13672 64.1974 3.6788 70.8451 8.62919L72.0396 7.02511C64.9178 1.72159 54.9098 -0.863281 42.1455 -0.863281V1.13672ZM70.8451 8.62919C77.4506 13.5482 80.7695 20.4873 80.7695 29.5801H82.7695C82.7695 19.9228 79.2037 12.36 72.0396 7.02511L70.8451 8.62919ZM80.7695 29.5801C80.7695 34.6496 79.6342 39.1383 77.3857 43.0732L79.1221 44.0655C81.5612 39.7972 82.7695 34.9598 82.7695 29.5801H80.7695ZM77.3882 43.0687C75.1314 46.9711 72.0837 50.0173 68.2351 52.2232L69.2297 53.9584C73.3889 51.5745 76.6889 48.273 79.1196 44.07L77.3882 43.0687ZM68.4209 54.041C74.2112 55.9395 78.642 59.0035 81.7731 63.2094L83.3773 62.0152C79.9654 57.432 75.1677 54.1484 69.044 52.1406L68.4209 54.041ZM81.7731 63.2094C84.8954 67.4037 86.4824 72.5801 86.4824 78.7988H88.4824C88.4824 72.2245 86.7979 66.61 83.3773 62.0152L81.7731 63.2094ZM86.4824 78.7988C86.4824 84.9781 84.9876 90.2993 82.0321 94.8029L83.7042 95.9002C86.901 91.0288 88.4824 85.3149 88.4824 78.7988H86.4824ZM82.0348 94.7989C79.0737 99.2639 74.8572 102.762 69.3422 105.282L70.1734 107.101C75.9865 104.445 80.5102 100.717 83.7016 95.9042L82.0348 94.7989ZM69.3488 105.279C63.8406 107.748 57.2966 109 49.6895 109V111C57.512 111 64.3469 109.713 70.1669 107.104L69.3488 105.279ZM49.6895 109H0.324219V111H49.6895V109ZM29.3281 45.4482H40.168V43.4482H29.3281V45.4482ZM40.168 45.4482C44.4333 45.4482 47.8734 44.5979 50.3571 42.7622L49.1683 41.1538C47.1598 42.6384 44.2034 43.4482 40.168 43.4482V45.4482ZM50.36 42.7601C52.9342 40.8431 54.2051 38.1143 54.2051 34.707H52.2051C52.2051 37.5498 51.1811 39.655 49.1654 41.156L50.36 42.7601ZM54.2051 34.707C54.2051 31.5118 52.9089 28.9373 50.3488 27.0853L49.1766 28.7057C51.2063 30.1741 52.2051 32.1405 52.2051 34.707H54.2051ZM50.3488 27.0853C47.8223 25.2576 44.3895 24.4053 40.168 24.4053V26.4053C44.1495 26.4053 47.1132 27.2131 49.1766 28.7057L50.3488 27.0853ZM40.168 24.4053H29.3281V26.4053H40.168V24.4053ZM28.3281 25.4053V44.4482H30.3281V25.4053H28.3281ZM29.3281 85.7314H42.1455V83.7314H29.3281V85.7314ZM42.1455 85.7314C45.5339 85.7314 48.4724 85.3584 50.9399 84.5873L50.3433 82.6783C48.1233 83.3721 45.3978 83.7314 42.1455 83.7314V85.7314ZM50.9578 84.5815C53.4191 83.7611 55.3752 82.5796 56.7457 80.9899L55.2309 79.684C54.1599 80.9263 52.5516 81.9421 50.3254 82.6841L50.9578 84.5815ZM56.7565 80.9771C58.1387 79.3185 58.8193 77.3292 58.8193 75.0635H56.8193C56.8193 76.8993 56.2793 78.4257 55.2201 79.6967L56.7565 80.9771ZM58.8193 75.0635C58.8193 72.8305 58.2308 70.8924 56.9943 69.3187L55.4217 70.5543C56.3337 71.7151 56.8193 73.1949 56.8193 75.0635H58.8193ZM57.0047 69.3321C55.7802 67.718 54.003 66.5675 51.7569 65.8362L51.1377 67.738C53.0908 68.3739 54.4874 69.323 55.4113 70.5409L57.0047 69.3321ZM51.7836 65.8454C49.5933 65.0631 46.9572 64.6885 43.9033 64.6885V66.6885C46.8064 66.6885 49.1997 67.0463 51.1109 67.7289L51.7836 65.8454ZM43.9033 64.6885H29.3281V66.6885H43.9033V64.6885ZM28.3281 65.6885V84.7314H30.3281V65.6885H28.3281ZM193.537 110V111H195.267L194.404 109.501L193.537 110ZM161.457 110L160.591 110.5L160.879 111H161.457V110ZM140.51 73.6719L141.376 73.1724L141.087 72.6719H140.51V73.6719ZM127.473 73.6719V72.6719H126.473V73.6719H127.473ZM127.473 110V111H128.473V110H127.473ZM98.4688 110H97.4688V111H98.4688V110ZM98.4688 0.136719V-0.863281H97.4688V0.136719H98.4688ZM182.331 17.0557L181.488 17.5931L181.493 17.6017L182.331 17.0557ZM169.44 68.1787L168.984 67.2887L168.05 67.7678L168.574 68.678L169.44 68.1787ZM127.473 51.333H126.473V52.333H127.473V51.333ZM153.547 48.1104L154.138 48.9168L154.141 48.9151L153.547 48.1104ZM153.547 28.7012L152.947 29.5012L152.954 29.5068L152.962 29.5122L153.547 28.7012ZM127.473 25.4053V24.4053H126.473V25.4053H127.473ZM193.537 109H161.457V111H193.537V109ZM162.323 109.5L141.376 73.1724L139.643 74.1714L160.591 110.5L162.323 109.5ZM140.51 72.6719H127.473V74.6719H140.51V72.6719ZM126.473 73.6719V110H128.473V73.6719H126.473ZM127.473 109H98.4688V111H127.473V109ZM99.4688 110V0.136719H97.4688V110H99.4688ZM98.4688 1.13672H142.707V-0.863281H98.4688V1.13672ZM142.707 1.13672C152.132 1.13672 160.095 2.5632 166.628 5.37646L167.419 3.53956C160.573 0.591101 152.325 -0.863281 142.707 -0.863281V1.13672ZM166.628 5.37646C173.155 8.18738 178.092 12.2634 181.488 17.593L183.174 16.5183C179.539 10.8128 174.271 6.49036 167.419 3.53956L166.628 5.37646ZM181.493 17.6017C184.933 22.8794 186.678 29.2972 186.678 36.9043H188.678C188.678 28.984 186.858 22.1694 183.169 16.5096L181.493 17.6017ZM186.678 36.9043C186.678 44.034 185.148 50.1253 182.13 55.2177L183.851 56.2373C187.083 50.7829 188.678 44.3253 188.678 36.9043H186.678ZM182.13 55.2177C179.109 60.3154 174.739 64.34 168.984 67.2887L169.896 69.0687C175.958 65.9627 180.621 61.6866 183.851 56.2373L182.13 55.2177ZM168.574 68.678L192.671 110.499L194.404 109.501L170.307 67.6795L168.574 68.678ZM127.473 52.333H140.437V50.333H127.473V52.333ZM140.437 52.333C146.342 52.333 150.962 51.2462 154.138 48.9168L152.956 47.3039C150.273 49.2713 146.152 50.333 140.437 50.333V52.333ZM154.141 48.9151C157.418 46.4972 159.015 42.9253 159.015 38.3691H157.015C157.015 42.4067 155.633 45.329 152.953 47.3056L154.141 48.9151ZM159.015 38.3691C159.015 33.8133 157.418 30.2603 154.132 27.8901L152.962 29.5122C155.633 31.4389 157.015 34.3312 157.015 38.3691H159.015ZM154.147 27.9012C150.969 25.5177 146.345 24.4053 140.437 24.4053V26.4053C146.149 26.4053 150.265 27.4901 152.947 29.5012L154.147 27.9012ZM140.437 24.4053H127.473V26.4053H140.437V24.4053ZM126.473 25.4053V51.333H128.473V25.4053H126.473ZM226.13 110V111H226.831L227.07 110.341L226.13 110ZM195.734 110L194.803 109.636L194.27 111H195.734V110ZM238.654 0.136719V-0.863281H237.971L237.723 -0.227165L238.654 0.136719ZM269.05 0.136719L269.981 -0.226627L269.733 -0.863281H269.05V0.136719ZM311.896 110V111H313.36L312.828 109.637L311.896 110ZM281.501 110L280.561 110.341L280.8 111H281.501V110ZM274.396 90.4443L275.336 90.1029L275.097 89.4443H274.396V90.4443ZM233.234 90.4443V89.4443H232.534L232.294 90.1029L233.234 90.4443ZM242.463 65.1758L241.523 64.8353L241.037 66.1758H242.463V65.1758ZM265.241 65.1758V66.1758H266.67L266.181 64.8333L265.241 65.1758ZM253.815 33.8281L254.755 33.4857L253.812 30.8997L252.875 33.4876L253.815 33.8281ZM226.13 109H195.734V111H226.13V109ZM196.666 110.364L239.586 0.500603L237.723 -0.227165L194.803 109.636L196.666 110.364ZM238.654 1.13672H269.05V-0.863281H238.654V1.13672ZM268.118 0.500064L310.965 110.363L312.828 109.637L269.981 -0.226627L268.118 0.500064ZM311.896 109H281.501V111H311.896V109ZM282.441 109.659L275.336 90.1029L273.457 90.7858L280.561 110.341L282.441 109.659ZM274.396 89.4443H233.234V91.4443H274.396V89.4443ZM232.294 90.1029L225.19 109.659L227.07 110.341L234.174 90.7858L232.294 90.1029ZM242.463 66.1758H265.241V64.1758H242.463V66.1758ZM266.181 64.8333L254.755 33.4857L252.876 34.1706L264.302 65.5182L266.181 64.8333ZM252.875 33.4876L241.523 64.8353L243.403 65.5163L254.756 34.1686L252.875 33.4876ZM422.639 110V111H423.639V110H422.639ZM388.508 110L387.653 110.519L387.945 111H388.508V110ZM348.957 44.8145L349.812 44.2957L347.957 41.2385V44.8145H348.957ZM348.957 110V111H349.957V110H348.957ZM319.953 110H318.953V111H319.953V110ZM319.953 0.136719V-0.863281H318.953V0.136719H319.953ZM354.084 0.136719L354.94 -0.380733L354.648 -0.863281H354.084V0.136719ZM393.635 65.542L392.779 66.0594L394.635 69.1282V65.542H393.635ZM393.635 0.136719V-0.863281H392.635V0.136719H393.635ZM422.639 0.136719H423.639V-0.863281H422.639V0.136719ZM422.639 109H388.508V111H422.639V109ZM389.363 109.481L349.812 44.2957L348.102 45.3332L387.653 110.519L389.363 109.481ZM347.957 44.8145V110H349.957V44.8145H347.957ZM348.957 109H319.953V111H348.957V109ZM320.953 110V0.136719H318.953V110H320.953ZM319.953 1.13672H354.084V-0.863281H319.953V1.13672ZM353.228 0.654171L392.779 66.0594L394.49 65.0245L354.94 -0.380733L353.228 0.654171ZM394.635 65.542V0.136719H392.635V65.542H394.635ZM393.635 1.13672H422.639V-0.863281H393.635V1.13672ZM421.639 0.136719V110H423.639V0.136719H421.639ZM437.287 110H436.287V111H437.287V110ZM437.287 0.136719V-0.863281H436.287V0.136719H437.287ZM510.456 6.94824L510.033 7.85419L510.034 7.855L510.456 6.94824ZM533.161 26.1377L532.323 26.6832L532.327 26.689L533.161 26.1377ZM533.161 83.999L532.325 83.45L532.323 83.4535L533.161 83.999ZM510.456 103.188L510.034 102.282L510.033 102.283L510.456 103.188ZM466.291 84.7314H465.291V85.7314H466.291V84.7314ZM507.6 71.2549L506.744 70.7376L506.742 70.7404L507.6 71.2549ZM507.6 38.8818L506.742 39.3963L506.746 39.4033L507.6 38.8818ZM466.291 25.4053V24.4053H465.291V25.4053H466.291ZM438.287 110V0.136719H436.287V110H438.287ZM437.287 1.13672H476.179V-0.863281H437.287V1.13672ZM476.179 1.13672C489.199 1.13672 500.475 3.38743 510.033 7.85419L510.879 6.04229C501.004 1.42702 489.428 -0.863281 476.179 -0.863281V1.13672ZM510.034 7.855C519.647 12.3247 527.064 18.6029 532.323 26.6832L533.999 25.5922C528.516 17.1686 520.797 10.6538 510.878 6.04148L510.034 7.855ZM532.327 26.689C537.625 34.7083 540.291 44.1546 540.291 55.0684H542.291C542.291 43.8141 539.537 33.9734 533.995 25.5864L532.327 26.689ZM540.291 55.0684C540.291 65.9322 537.626 75.38 532.325 83.45L533.997 84.548C539.536 76.1142 542.291 66.2748 542.291 55.0684H540.291ZM532.323 83.4535C527.064 91.5338 519.647 97.812 510.034 102.282L510.878 104.095C520.797 99.4829 528.516 92.9682 533.999 84.5445L532.323 83.4535ZM510.033 102.283C500.475 106.749 489.199 109 476.179 109V111C489.428 111 501.004 108.71 510.879 104.094L510.033 102.283ZM476.179 109H437.287V111H476.179V109ZM466.291 85.7314H477.131V83.7314H466.291V85.7314ZM477.131 85.7314C484.65 85.7314 491.073 84.5696 496.363 82.2018L495.546 80.3763C490.581 82.5984 484.455 83.7314 477.131 83.7314V85.7314ZM496.363 82.2018C501.658 79.8316 505.705 76.3564 508.457 71.7694L506.742 70.7404C504.221 74.9425 500.504 78.1566 495.546 80.3763L496.363 82.2018ZM508.455 71.7721C511.254 67.1413 512.628 61.5578 512.628 55.0684H510.628C510.628 61.2742 509.316 66.4817 506.744 70.7376L508.455 71.7721ZM512.628 55.0684C512.628 48.5322 511.255 42.9459 508.453 38.3604L506.746 39.4033C509.315 43.6069 510.628 48.8116 510.628 55.0684H512.628ZM508.457 38.3673C505.705 33.7804 501.658 30.3051 496.363 27.9349L495.546 29.7604C500.504 31.9801 504.221 35.1943 506.742 39.3963L508.457 38.3673ZM496.363 27.9349C491.073 25.5672 484.65 24.4053 477.131 24.4053V26.4053C484.455 26.4053 490.581 27.5383 495.546 29.7604L496.363 27.9349ZM477.131 24.4053H466.291V26.4053H477.131V24.4053ZM465.291 25.4053V84.7314H467.291V25.4053H465.291Z" fill="white" fill-opacity="0.15"/>
</svg>
