<svg width="759" height="116" viewBox="0 0 759 116" fill="none" xmlns="http://www.w3.org/2000/svg">
<path d="M0.324219 113H-0.675781V114H0.324219V113ZM0.324219 3.13672V2.13672H-0.675781V3.13672H0.324219ZM70.6367 3.13672H71.6367V2.13672H70.6367V3.13672ZM70.6367 28.4053V29.4053H71.6367V28.4053H70.6367ZM29.3281 28.4053V27.4053H28.3281V28.4053H29.3281ZM29.3281 45.3975H28.3281V46.3975H29.3281V45.3975ZM67.707 45.3975H68.707V44.3975H67.707V45.3975ZM67.707 70.666V71.666H68.707V70.666H67.707ZM29.3281 70.666V69.666H28.3281V70.666H29.3281ZM29.3281 113V114H30.3281V113H29.3281ZM1.32422 113V3.13672H-0.675781V113H1.32422ZM0.324219 4.13672H70.6367V2.13672H0.324219V4.13672ZM69.6367 3.13672V28.4053H71.6367V3.13672H69.6367ZM70.6367 27.4053H29.3281V29.4053H70.6367V27.4053ZM28.3281 28.4053V45.3975H30.3281V28.4053H28.3281ZM29.3281 46.3975H67.707V44.3975H29.3281V46.3975ZM66.707 45.3975V70.666H68.707V45.3975H66.707ZM67.707 69.666H29.3281V71.666H67.707V69.666ZM28.3281 70.666V113H30.3281V70.666H28.3281ZM29.3281 112H0.324219V114H29.3281V112ZM84.5527 113H83.5527V114H84.5527V113ZM84.5527 3.13672V2.13672H83.5527V3.13672H84.5527ZM157.795 3.13672H158.795V2.13672H157.795V3.13672ZM157.795 28.4053V29.4053H158.795V28.4053H157.795ZM113.557 28.4053V27.4053H112.557V28.4053H113.557ZM113.557 45.3975H112.557V46.3975H113.557V45.3975ZM154.865 45.3975H155.865V44.3975H154.865V45.3975ZM154.865 70.666V71.666H155.865V70.666H154.865ZM113.557 70.666V69.666H112.557V70.666H113.557ZM113.557 87.7314H112.557V88.7314H113.557V87.7314ZM158.527 87.7314H159.527V86.7314H158.527V87.7314ZM158.527 113V114H159.527V113H158.527ZM85.5527 113V3.13672H83.5527V113H85.5527ZM84.5527 4.13672H157.795V2.13672H84.5527V4.13672ZM156.795 3.13672V28.4053H158.795V3.13672H156.795ZM157.795 27.4053H113.557V29.4053H157.795V27.4053ZM112.557 28.4053V45.3975H114.557V28.4053H112.557ZM113.557 46.3975H154.865V44.3975H113.557V46.3975ZM153.865 45.3975V70.666H155.865V45.3975H153.865ZM154.865 69.666H113.557V71.666H154.865V69.666ZM112.557 70.666V87.7314H114.557V70.666H112.557ZM113.557 88.7314H158.527V86.7314H113.557V88.7314ZM157.527 87.7314V113H159.527V87.7314H157.527ZM158.527 112H84.5527V114H158.527V112ZM196.247 113V114H196.948L197.187 113.341L196.247 113ZM165.852 113L164.92 112.636L164.387 114H165.852V113ZM208.771 3.13672V2.13672H208.089L207.84 2.77283L208.771 3.13672ZM239.167 3.13672L240.099 2.77337L239.85 2.13672H239.167V3.13672ZM282.014 113V114H283.477L282.945 112.637L282.014 113ZM251.618 113L250.678 113.341L250.918 114H251.618V113ZM244.514 93.4443L245.454 93.1029L245.214 92.4443H244.514V93.4443ZM203.352 93.4443V92.4443H202.651L202.412 93.1029L203.352 93.4443ZM212.58 68.1758L211.64 67.8353L211.154 69.1758H212.58V68.1758ZM235.358 68.1758V69.1758H236.787L236.298 67.8333L235.358 68.1758ZM223.933 36.8281L224.872 36.4857L223.93 33.8997L222.992 36.4876L223.933 36.8281ZM196.247 112H165.852V114H196.247V112ZM166.783 113.364L209.703 3.5006L207.84 2.77283L164.92 112.636L166.783 113.364ZM208.771 4.13672H239.167V2.13672H208.771V4.13672ZM238.235 3.50006L281.082 113.363L282.945 112.637L240.099 2.77337L238.235 3.50006ZM282.014 112H251.618V114H282.014V112ZM252.558 112.659L245.454 93.1029L243.574 93.7858L250.678 113.341L252.558 112.659ZM244.514 92.4443H203.352V94.4443H244.514V92.4443ZM202.412 93.1029L195.307 112.659L197.187 113.341L204.291 93.7858L202.412 93.1029ZM212.58 69.1758H235.358V67.1758H212.58V69.1758ZM236.298 67.8333L224.872 36.4857L222.993 37.1706L234.419 68.5182L236.298 67.8333ZM222.992 36.4876L211.64 67.8353L213.52 68.5163L224.873 37.1686L222.992 36.4876ZM335.627 113V114H336.627V113H335.627ZM306.623 113H305.623V114H306.623V113ZM306.623 28.4053H307.623V27.4053H306.623V28.4053ZM276.154 28.4053H275.154V29.4053H276.154V28.4053ZM276.154 3.13672V2.13672H275.154V3.13672H276.154ZM366.096 3.13672H367.096V2.13672H366.096V3.13672ZM366.096 28.4053V29.4053H367.096V28.4053H366.096ZM335.627 28.4053V27.4053H334.627V28.4053H335.627ZM335.627 112H306.623V114H335.627V112ZM307.623 113V28.4053H305.623V113H307.623ZM306.623 27.4053H276.154V29.4053H306.623V27.4053ZM277.154 28.4053V3.13672H275.154V28.4053H277.154ZM276.154 4.13672H366.096V2.13672H276.154V4.13672ZM365.096 3.13672V28.4053H367.096V3.13672H365.096ZM366.096 27.4053H335.627V29.4053H366.096V27.4053ZM334.627 28.4053V113H336.627V28.4053H334.627ZM472.59 3.13672H473.59V2.13672H472.59V3.13672ZM466.657 91.1738L465.766 90.7199L465.765 90.7221L466.657 91.1738ZM449.738 108.972L449.248 108.1L449.245 108.102L449.738 108.972ZM380.012 91.1738L379.118 91.6233L379.122 91.63L380.012 91.1738ZM374.152 3.13672V2.13672H373.152V3.13672H374.152ZM403.156 3.13672H404.156V2.13672H403.156V3.13672ZM405.28 76.6719L404.326 76.9725L404.33 76.9819L405.28 76.6719ZM411.945 86.7061L411.352 87.5108L411.36 87.5171L411.945 86.7061ZM434.797 86.7061L435.382 87.5171L435.391 87.5108L434.797 86.7061ZM441.389 76.6719L440.438 76.3618L440.435 76.3712L441.389 76.6719ZM443.586 3.13672V2.13672H442.586V3.13672H443.586ZM471.59 3.13672V63.415H473.59V3.13672H471.59ZM471.59 63.415C471.59 74.0355 469.635 83.1258 465.766 90.7199L467.548 91.6278C471.59 83.6945 473.59 74.2789 473.59 63.415H471.59ZM465.765 90.7221C461.946 98.2645 456.444 104.049 449.248 108.1L450.229 109.843C457.778 105.593 463.556 99.5128 467.549 91.6256L465.765 90.7221ZM449.245 108.102C442.101 112.15 433.49 114.197 423.371 114.197V116.197C433.76 116.197 442.727 114.094 450.231 109.842L449.245 108.102ZM423.371 114.197C413.303 114.197 404.69 112.151 397.494 108.1L396.513 109.843C404.064 114.094 413.03 116.197 423.371 116.197V114.197ZM397.494 108.1C390.297 104.049 384.77 98.2625 380.902 90.7176L379.122 91.63C383.164 99.5149 388.965 105.594 396.513 109.843L397.494 108.1ZM380.905 90.7244C377.084 83.1292 375.152 74.0373 375.152 63.415H373.152C373.152 74.2772 375.127 83.6911 379.118 91.6233L380.905 90.7244ZM375.152 63.415V3.13672H373.152V63.415H375.152ZM374.152 4.13672H403.156V2.13672H374.152V4.13672ZM402.156 3.13672V59.46H404.156V3.13672H402.156ZM402.156 59.46C402.156 66.5001 402.869 72.3483 404.327 76.9725L406.234 76.3712C404.86 72.011 404.156 66.3846 404.156 59.46H402.156ZM404.33 76.9819C405.841 81.6172 408.164 85.1595 411.352 87.5108L412.539 85.9013C409.769 83.8581 407.649 80.7109 406.231 76.3619L404.33 76.9819ZM411.36 87.5171C414.549 89.8173 418.578 90.9287 423.371 90.9287V88.9287C418.887 88.9287 415.298 87.8916 412.53 85.895L411.36 87.5171ZM423.371 90.9287C428.164 90.9287 432.193 89.8173 435.382 87.5171L434.212 85.895C431.444 87.8916 427.855 88.9287 423.371 88.9287V90.9287ZM435.391 87.5108C438.581 85.1573 440.88 81.6113 442.342 76.9725L440.435 76.3712C439.065 80.7169 436.97 83.8603 434.203 85.9013L435.391 87.5108ZM442.339 76.9819C443.848 72.3541 444.586 66.5023 444.586 59.46H442.586C442.586 66.3824 441.859 72.0053 440.438 76.3619L442.339 76.9819ZM444.586 59.46V3.13672H442.586V59.46H444.586ZM443.586 4.13672H472.59V2.13672H443.586V4.13672ZM582.307 113V114H584.037L583.173 112.501L582.307 113ZM550.227 113L549.36 113.5L549.649 114H550.227V113ZM529.279 76.6719L530.146 76.1724L529.857 75.6719H529.279V76.6719ZM516.242 76.6719V75.6719H515.242V76.6719H516.242ZM516.242 113V114H517.242V113H516.242ZM487.238 113H486.238V114H487.238V113ZM487.238 3.13672V2.13672H486.238V3.13672H487.238ZM571.101 20.0557L570.257 20.5931L570.263 20.6017L571.101 20.0557ZM558.21 71.1787L557.754 70.2887L556.819 70.7678L557.344 71.6779L558.21 71.1787ZM516.242 54.333H515.242V55.333H516.242V54.333ZM542.316 51.1104L542.908 51.9168L542.91 51.9151L542.316 51.1104ZM542.316 31.7012L541.716 32.5012L541.724 32.5068L541.731 32.5122L542.316 31.7012ZM516.242 28.4053V27.4053H515.242V28.4053H516.242ZM582.307 112H550.227V114H582.307V112ZM551.093 112.5L530.146 76.1724L528.413 77.1714L549.36 113.5L551.093 112.5ZM529.279 75.6719H516.242V77.6719H529.279V75.6719ZM515.242 76.6719V113H517.242V76.6719H515.242ZM516.242 112H487.238V114H516.242V112ZM488.238 113V3.13672H486.238V113H488.238ZM487.238 4.13672H531.477V2.13672H487.238V4.13672ZM531.477 4.13672C540.902 4.13672 548.865 5.56319 555.397 8.37646L556.188 6.53956C549.342 3.5911 541.094 2.13672 531.477 2.13672V4.13672ZM555.397 8.37646C561.924 11.1874 566.861 15.2634 570.257 20.593L571.944 19.5183C568.309 13.8128 563.04 9.49036 556.188 6.53956L555.397 8.37646ZM570.263 20.6017C573.703 25.8794 575.447 32.2972 575.447 39.9043H577.447C577.447 31.984 575.627 25.1694 571.938 19.5096L570.263 20.6017ZM575.447 39.9043C575.447 47.034 573.917 53.1253 570.899 58.2177L572.62 59.2373C575.852 53.7829 577.447 47.3253 577.447 39.9043H575.447ZM570.899 58.2177C567.879 63.3154 563.509 67.34 557.754 70.2887L558.666 72.0687C564.728 68.9627 569.391 64.6866 572.62 59.2373L570.899 58.2177ZM557.344 71.6779L581.44 113.499L583.173 112.501L559.076 70.6795L557.344 71.6779ZM516.242 55.333H529.206V53.333H516.242V55.333ZM529.206 55.333C535.112 55.333 539.731 54.2462 542.908 51.9168L541.725 50.3039C539.042 52.2713 534.922 53.333 529.206 53.333V55.333ZM542.91 51.9151C546.188 49.4972 547.784 45.9253 547.784 41.3691H545.784C545.784 45.4067 544.402 48.3289 541.723 50.3056L542.91 51.9151ZM547.784 41.3691C547.784 36.8133 546.187 33.2603 542.901 30.8901L541.731 32.5122C544.403 34.4389 545.784 37.3312 545.784 41.3691H547.784ZM542.916 30.9012C539.738 28.5177 535.115 27.4053 529.206 27.4053V29.4053C534.918 29.4053 539.035 30.4901 541.716 32.5012L542.916 30.9012ZM529.206 27.4053H516.242V29.4053H529.206V27.4053ZM515.242 28.4053V54.333H517.242V28.4053H515.242ZM591.096 113H590.096V114H591.096V113ZM591.096 3.13672V2.13672H590.096V3.13672H591.096ZM664.338 3.13672H665.338V2.13672H664.338V3.13672ZM664.338 28.4053V29.4053H665.338V28.4053H664.338ZM620.1 28.4053V27.4053H619.1V28.4053H620.1ZM620.1 45.3975H619.1V46.3975H620.1V45.3975ZM661.408 45.3975H662.408V44.3975H661.408V45.3975ZM661.408 70.666V71.666H662.408V70.666H661.408ZM620.1 70.666V69.666H619.1V70.666H620.1ZM620.1 87.7314H619.1V88.7314H620.1V87.7314ZM665.07 87.7314H666.07V86.7314H665.07V87.7314ZM665.07 113V114H666.07V113H665.07ZM592.096 113V3.13672H590.096V113H592.096ZM591.096 4.13672H664.338V2.13672H591.096V4.13672ZM663.338 3.13672V28.4053H665.338V3.13672H663.338ZM664.338 27.4053H620.1V29.4053H664.338V27.4053ZM619.1 28.4053V45.3975H621.1V28.4053H619.1ZM620.1 46.3975H661.408V44.3975H620.1V46.3975ZM660.408 45.3975V70.666H662.408V45.3975H660.408ZM661.408 69.666H620.1V71.666H661.408V69.666ZM619.1 70.666V87.7314H621.1V70.666H619.1ZM620.1 88.7314H665.07V86.7314H620.1V88.7314ZM664.07 87.7314V113H666.07V87.7314H664.07ZM665.07 112H591.096V114H665.07V112ZM673.127 100.402L672.276 99.8779L671.805 100.641L672.513 101.192L673.127 100.402ZM686.75 78.2832L687.365 77.495L686.485 76.8072L685.899 77.7588L686.75 78.2832ZM696.711 85.0947L696.215 85.963L696.221 85.9663L696.711 85.0947ZM705.793 88.9766L705.52 89.9387L705.53 89.9414L705.539 89.9438L705.793 88.9766ZM722.639 89.123L722.942 90.076L722.952 90.0729L722.961 90.0696L722.639 89.123ZM727.546 86.0469L726.787 85.3961L726.785 85.3984L727.546 86.0469ZM720.148 70.7393L719.714 71.64L719.72 71.643L720.148 70.7393ZM711.14 66.7842L711.513 65.8567L711.513 65.8566L711.14 66.7842ZM700.373 62.0967L699.94 62.9983L699.95 63.0029L700.373 62.0967ZM682.795 46.6426L681.91 47.1088L681.913 47.1138L682.795 46.6426ZM685.065 15.9541L684.25 15.3752L684.249 15.3768L685.065 15.9541ZM699.201 4.82129L699.593 5.74122L699.597 5.73966L699.201 4.82129ZM755.744 10.0215L756.644 10.4573L757.076 9.56588L756.189 9.12567L755.744 10.0215ZM744.465 33.3125L743.943 34.1658L744.884 34.7408L745.365 33.7484L744.465 33.3125ZM732.893 28.1855L732.59 29.1387L732.603 29.1428L732.893 28.1855ZM715.168 27.1602L714.836 26.2167L714.828 26.2196L715.168 27.1602ZM711.066 29.9434L711.835 30.5835L711.841 30.5759L711.847 30.5681L711.066 29.9434ZM712.092 39.8311L711.385 40.5382L711.39 40.5434L711.395 40.5486L712.092 39.8311ZM727.619 48.4736L727.217 49.3892L727.224 49.3921L727.619 48.4736ZM738.386 53.5273L737.934 54.4194L737.939 54.4218L738.386 53.5273ZM748.566 60.1191L747.93 60.8904L747.936 60.8953L748.566 60.1191ZM756.11 69.2744L755.228 69.7456L755.231 69.7507L756.11 69.2744ZM753.547 99.377L752.735 98.7935L752.734 98.795L753.547 99.377ZM738.532 111.022L738.136 110.104L738.133 110.105L738.532 111.022ZM673.978 100.927L687.601 78.8076L685.899 77.7588L672.276 99.8779L673.978 100.927ZM686.135 79.0714C689.727 81.8765 693.087 84.1759 696.215 85.963L697.207 84.2265C694.182 82.4979 690.902 80.2563 687.365 77.495L686.135 79.0714ZM696.221 85.9663C699.403 87.7561 702.503 89.0837 705.52 89.9387L706.066 88.0144C703.224 87.2093 700.269 85.9489 697.201 84.2232L696.221 85.9663ZM705.539 89.9438C708.601 90.7468 711.713 91.1484 714.875 91.1484V89.1484C711.885 89.1484 708.942 88.7688 706.047 88.0093L705.539 89.9438ZM714.875 91.1484C717.972 91.1484 720.668 90.7994 722.942 90.076L722.335 88.1701C720.312 88.8139 717.832 89.1484 714.875 89.1484V91.1484ZM722.961 90.0696C725.229 89.2967 727.036 88.187 728.307 86.6953L726.785 85.3984C725.809 86.5435 724.346 87.4846 722.316 88.1765L722.961 90.0696ZM728.305 86.6977C729.637 85.1433 730.304 83.2991 730.304 81.2129H728.304C728.304 82.8376 727.798 84.2161 726.787 85.3961L728.305 86.6977ZM730.304 81.2129C730.304 78.6034 729.368 76.3473 727.521 74.4999L726.106 75.9141C727.579 77.3871 728.304 79.1349 728.304 81.2129H730.304ZM727.521 74.4999C725.759 72.7379 723.433 71.1885 720.577 69.8355L719.72 71.643C722.43 72.9267 724.548 74.3559 726.106 75.9141L727.521 74.4999ZM720.583 69.8385C717.826 68.5092 714.802 67.182 711.513 65.8567L710.766 67.7117C714.02 69.0231 717.003 70.3326 719.714 71.64L720.583 69.8385ZM711.513 65.8566C708.015 64.4477 704.443 62.8924 700.796 61.1905L699.95 63.0029C703.627 64.7189 707.233 66.2886 710.766 67.7118L711.513 65.8566ZM700.806 61.1952C697.212 59.4701 693.909 57.3874 690.895 54.9474L689.636 56.5019C692.775 59.0423 696.21 61.2076 699.94 62.9982L700.806 61.1952ZM690.895 54.9474C687.925 52.543 685.52 49.6205 683.677 46.1714L681.913 47.1138C683.879 50.7936 686.454 53.9257 689.636 56.5019L690.895 54.9474ZM683.68 46.1763C681.869 42.7401 680.938 38.5147 680.938 33.459H678.938C678.938 38.7549 679.913 43.3185 681.91 47.1088L683.68 46.1763ZM680.938 33.459C680.938 26.7968 682.601 21.1715 685.882 16.5314L684.249 15.3768C680.694 20.4047 678.938 26.4493 678.938 33.459H680.938ZM685.881 16.533C689.232 11.813 693.792 8.21399 699.593 5.74121L698.809 3.90137C692.697 6.50672 687.832 10.3296 684.25 15.3752L685.881 16.533ZM699.597 5.73966C705.46 3.21343 712.109 1.93945 719.562 1.93945V-0.0605469C711.879 -0.0605469 704.954 1.25337 698.805 3.90292L699.597 5.73966ZM719.562 1.93945C724.992 1.93945 730.748 2.66018 736.836 4.10952L737.299 2.16391C731.082 0.683575 725.168 -0.0605469 719.562 -0.0605469V1.93945ZM736.836 4.10952C742.907 5.55502 749.061 7.82224 755.3 10.9173L756.189 9.12567C749.829 5.97073 743.533 3.64811 737.299 2.16391L736.836 4.10952ZM754.844 9.58563L743.565 32.8766L745.365 33.7484L756.644 10.4573L754.844 9.58563ZM744.986 32.4592C741.393 30.2636 737.457 28.5209 733.182 27.2283L732.603 29.1428C736.726 30.3893 740.505 32.0645 743.943 34.1658L744.986 32.4592ZM733.195 27.2325C728.971 25.8906 725.059 25.208 721.467 25.208V27.208C724.808 27.208 728.513 27.8438 732.59 29.1386L733.195 27.2325ZM721.467 25.208C718.988 25.208 716.772 25.5365 714.836 26.2167L715.499 28.1036C717.177 27.5143 719.16 27.208 721.467 27.208V25.208ZM714.828 26.2196C712.931 26.9046 711.398 27.9281 710.286 29.3187L711.847 30.5681C712.688 29.5172 713.889 28.6852 715.508 28.1007L714.828 26.2196ZM710.298 29.3032C709.163 30.6654 708.602 32.2871 708.602 34.1182H710.602C710.602 32.7265 711.017 31.5651 711.835 30.5835L710.298 29.3032ZM708.602 34.1182C708.602 36.5577 709.556 38.7096 711.385 40.5382L712.799 39.1239C711.307 37.6322 710.602 35.9755 710.602 34.1182H708.602ZM711.395 40.5486C713.148 42.2501 715.438 43.794 718.236 45.1933L719.131 43.4044C716.46 42.0692 714.356 40.6347 712.788 39.1135L711.395 40.5486ZM718.236 45.1933C720.988 46.5688 723.981 47.9675 727.217 49.3892L728.021 47.5581C724.812 46.1478 721.848 44.7632 719.131 43.4044L718.236 45.1933ZM727.224 49.3921C730.719 50.897 734.289 52.5726 737.934 54.4194L738.838 52.6353C735.158 50.7711 731.551 49.0776 728.015 47.5551L727.224 49.3921ZM737.939 54.4218C741.585 56.2448 744.914 58.4013 747.93 60.8904L749.203 59.3479C746.066 56.7589 742.609 54.5208 738.833 52.6329L737.939 54.4218ZM747.936 60.8953C750.957 63.3501 753.386 66.2981 755.228 69.7456L756.992 68.8032C755.026 65.1218 752.426 61.9663 749.197 59.343L747.936 60.8953ZM755.231 69.7507C757.04 73.0897 757.967 77.1417 757.967 81.9453H759.967C759.967 76.8857 758.99 72.4904 756.99 68.7981L755.231 69.7507ZM757.967 81.9453C757.967 88.342 756.218 93.9455 752.735 98.7935L754.359 99.9604C758.103 94.7498 759.967 88.7322 759.967 81.9453H757.967ZM752.734 98.795C749.29 103.607 744.439 107.383 738.136 110.104L738.929 111.941C745.516 109.096 750.675 105.108 754.36 99.9589L752.734 98.795ZM738.133 110.105C731.887 112.823 724.581 114.197 716.193 114.197V116.197C724.798 116.197 732.385 114.788 738.931 111.939L738.133 110.105ZM716.193 114.197C708.392 114.197 700.886 112.946 693.669 110.444L693.014 112.334C700.446 114.91 708.174 116.197 716.193 116.197V114.197ZM693.669 110.444C686.449 107.941 679.807 104.331 673.741 99.613L672.513 101.192C678.751 106.044 685.586 109.758 693.014 112.334L693.669 110.444Z" fill="white" fill-opacity="0.15"/>
</svg>
